Results
version=1
nRows=9
nColumns=24
inDegrees=yes
endheader
time	pelvis_tilt	pelvis_list	pelvis_rotation	pelvis_tx	pelvis_ty	pelvis_tz	hip_flexion_r	hip_adduction_r	hip_rotation_r	knee_angle_r	ankle_angle_r	subtalar_angle_r	mtp_angle_r	hip_flexion_l	hip_adduction_l	hip_rotation_l	knee_angle_l	ankle_angle_l	subtalar_angle_l	mtp_angle_l	lumbar_extension	lumbar_bending	lumbar_rotation
      0.91700000	     -3.11749811	     -9.88745299	     -3.77678627	     -0.22087541	      0.98986013	      0.34036610	     -8.20202798	     12.93979249	     -4.23209644	    -10.33558708	      7.68741589	     -6.91927098	     -6.62387355	     27.97742981	    -11.21275917	    -11.31452519	     -3.40385607	     -0.29618169	     -3.07088805	      0.61167846	     -9.60258034	     11.41656326	      8.41268197
      0.92116667	     -3.01205496	     -9.73632560	     -3.89729412	     -0.21485090	      0.98964524	      0.34078563	     -8.47644132	     12.68903142	     -4.16955726	    -10.76878416	      7.72950982	     -6.63955022	     -6.51407685	     27.71774683	    -11.09904771	    -11.18711410	     -3.71367847	     -0.61326217	     -3.39290490	      0.67883337	     -9.69321110	     11.10305096	      8.57663236
      0.92533333	     -2.90749987	     -9.59320279	     -4.00834777	     -0.20883611	      0.98948090	      0.34118595	     -8.73239867	     12.44650429	     -4.09746685	    -11.22638855	      7.74303244	     -6.38473428	     -6.39243760	     27.46908504	    -10.99139583	    -11.03856691	     -4.06328105	     -0.94787123	     -3.70760979	      0.75239600	     -9.78441835	     10.80153526	      8.71010711
      0.92950000	     -2.80259594	     -9.43336085	     -4.10868661	     -0.20278697	      0.98938342	      0.34155621	     -8.96804152	     12.18238427	     -4.04553946	    -11.71177988	      7.70445122	     -6.12969871	     -6.24696061	     27.21768976	    -10.86172494	    -10.88102768	     -4.42909988	     -1.32999080	     -4.05248144	      0.83886706	     -9.86823554	     10.47952123	      8.84572147
      0.93366667	     -2.53171243	     -9.25964916	     -4.10779721	     -0.19673976	      0.98957086	      0.34166893	     -9.35854484	     11.88496885	     -4.13020691	    -12.20374519	      7.61516591	     -5.81505431	     -5.83232976	     26.79740086	    -10.66167570	    -10.65339122	     -4.78680761	     -1.73353322	     -4.42378404	      1.08882425	    -10.14001855	     10.14558739	      9.00070863
      0.93783333	     -2.53265123	     -9.10390513	     -4.25618241	     -0.19071389	      0.98943815	      0.34214641	     -9.42209176	     11.63194325	     -4.00362046	    -12.79694797	      7.50300490	     -5.64575062	     -5.70389106	     26.66842996	    -10.56768940	    -10.54894436	     -5.20864587	     -2.20011208	     -4.76393241	      1.15532204	    -10.10605659	      9.83374260	      9.00257975
      0.94200000	     -2.48932453	     -8.93151077	     -4.34791310	     -0.18466685	      0.98942685	      0.34243453	     -9.49897417	     11.34890232	     -3.98257926	    -13.43125315	      7.35011308	     -5.41095616	     -5.54101906	     26.49149150	    -10.41951995	    -10.37404303	     -5.61258405	     -2.71263353	     -5.19939597	      1.23632751	    -10.11540565	      9.50663238	      9.12821153
      0.94616667	     -2.24593231	     -8.75449844	     -4.25458999	     -0.17861987	      0.98970752	      0.34221714	     -9.75830695	     11.03434056	     -4.22565674	    -14.07416397	      7.16579750	     -5.01252984	     -4.88720173	     26.12600357	    -10.15815378	    -10.00901762	     -5.99263953	     -3.22301179	     -5.74500922	      1.56649402	    -10.34813178	      9.20333040	      9.21169626
      0.95033333	     -2.23468104	     -8.58536373	     -4.27656912	     -0.17255546	      0.98971659	      0.34231630	     -9.73402846	     10.75507669	     -4.30716300	    -14.79489838	      6.83833991	     -4.91218490	      1.49203727	     26.01622259	     -9.98147535	     -9.79060317	     -6.43352332	     -3.77348417	     -6.25578958	      4.55975755	    -10.30699237	      8.90570737	      9.11681849
